<mxfile host="app.diagrams.net" agent="Mozilla/5.0 (Windows NT 10.0; Win64; x64) AppleWebKit/537.36 (KHTML, like Gecko) Chrome/136.0.0.0 Safari/537.36" version="27.0.5">
  <diagram name="Σελίδα-1" id="V5_OHd0YAoOsa7ohr00X">
    <mxGraphModel dx="1611" dy="1102" grid="1" gridSize="10" guides="1" tooltips="1" connect="1" arrows="1" fold="1" page="1" pageScale="1" pageWidth="827" pageHeight="1169" math="0" shadow="0" adaptiveColors="none">
      <root>
        <mxCell id="0" />
        <mxCell id="1" parent="0" />
        <mxCell id="BLg8-A7XgE2zRtbyasNK-1" value=":GradedSubjects" style="shape=umlLifeline;perimeter=lifelinePerimeter;whiteSpace=wrap;html=1;container=1;dropTarget=0;collapsible=0;recursiveResize=0;outlineConnect=0;portConstraint=eastwest;newEdgeStyle={&quot;curved&quot;:0,&quot;rounded&quot;:0};" parent="1" vertex="1">
          <mxGeometry x="270" y="80" width="100" height="440" as="geometry" />
        </mxCell>
        <mxCell id="BLg8-A7XgE2zRtbyasNK-6" value="" style="html=1;points=[[0,0,0,0,5],[0,1,0,0,-5],[1,0,0,0,5],[1,1,0,0,-5]];perimeter=orthogonalPerimeter;outlineConnect=0;targetShapes=umlLifeline;portConstraint=eastwest;newEdgeStyle={&quot;curved&quot;:0,&quot;rounded&quot;:0};" parent="BLg8-A7XgE2zRtbyasNK-1" vertex="1">
          <mxGeometry x="45" y="40" width="10" height="180" as="geometry" />
        </mxCell>
        <mxCell id="BLg8-A7XgE2zRtbyasNK-2" value="" style="shape=umlLifeline;perimeter=lifelinePerimeter;whiteSpace=wrap;html=1;container=1;dropTarget=0;collapsible=0;recursiveResize=0;outlineConnect=0;portConstraint=eastwest;newEdgeStyle={&quot;curved&quot;:0,&quot;rounded&quot;:0};participant=umlActor;" parent="1" vertex="1">
          <mxGeometry x="130" y="80" width="20" height="440" as="geometry" />
        </mxCell>
        <mxCell id="BLg8-A7XgE2zRtbyasNK-5" value="" style="html=1;points=[[0,0,0,0,5],[0,1,0,0,-5],[1,0,0,0,5],[1,1,0,0,-5]];perimeter=orthogonalPerimeter;outlineConnect=0;targetShapes=umlLifeline;portConstraint=eastwest;newEdgeStyle={&quot;curved&quot;:0,&quot;rounded&quot;:0};" parent="BLg8-A7XgE2zRtbyasNK-2" vertex="1">
          <mxGeometry x="5" y="40" width="10" height="340" as="geometry" />
        </mxCell>
        <mxCell id="BLg8-A7XgE2zRtbyasNK-3" value=":Review" style="shape=umlLifeline;perimeter=lifelinePerimeter;whiteSpace=wrap;html=1;container=1;dropTarget=0;collapsible=0;recursiveResize=0;outlineConnect=0;portConstraint=eastwest;newEdgeStyle={&quot;curved&quot;:0,&quot;rounded&quot;:0};" parent="1" vertex="1">
          <mxGeometry x="400" y="80" width="100" height="440" as="geometry" />
        </mxCell>
        <mxCell id="BLg8-A7XgE2zRtbyasNK-8" value="" style="html=1;points=[[0,0,0,0,5],[0,1,0,0,-5],[1,0,0,0,5],[1,1,0,0,-5]];perimeter=orthogonalPerimeter;outlineConnect=0;targetShapes=umlLifeline;portConstraint=eastwest;newEdgeStyle={&quot;curved&quot;:0,&quot;rounded&quot;:0};" parent="BLg8-A7XgE2zRtbyasNK-3" vertex="1">
          <mxGeometry x="45" y="40" width="10" height="80" as="geometry" />
        </mxCell>
        <mxCell id="BLg8-A7XgE2zRtbyasNK-4" value=":MainMenu" style="shape=umlLifeline;perimeter=lifelinePerimeter;whiteSpace=wrap;html=1;container=1;dropTarget=0;collapsible=0;recursiveResize=0;outlineConnect=0;portConstraint=eastwest;newEdgeStyle={&quot;curved&quot;:0,&quot;rounded&quot;:0};" parent="1" vertex="1">
          <mxGeometry x="530" y="80" width="100" height="440" as="geometry" />
        </mxCell>
        <mxCell id="BLg8-A7XgE2zRtbyasNK-7" value="display()" style="html=1;verticalAlign=bottom;endArrow=open;dashed=1;endSize=8;curved=0;rounded=0;" parent="1" source="BLg8-A7XgE2zRtbyasNK-6" edge="1">
          <mxGeometry relative="1" as="geometry">
            <mxPoint x="285" y="150" as="sourcePoint" />
            <mxPoint x="145" y="150" as="targetPoint" />
          </mxGeometry>
        </mxCell>
        <mxCell id="BLg8-A7XgE2zRtbyasNK-9" value="" style="html=1;verticalAlign=bottom;endArrow=block;curved=0;rounded=0;exitX=1.1;exitY=0.206;exitDx=0;exitDy=0;exitPerimeter=0;" parent="1" source="BLg8-A7XgE2zRtbyasNK-6" target="BLg8-A7XgE2zRtbyasNK-8" edge="1">
          <mxGeometry width="80" relative="1" as="geometry">
            <mxPoint x="295" y="160" as="sourcePoint" />
            <mxPoint x="445" y="160" as="targetPoint" />
          </mxGeometry>
        </mxCell>
        <mxCell id="BLg8-A7XgE2zRtbyasNK-10" value="match to" style="edgeLabel;html=1;align=center;verticalAlign=middle;resizable=0;points=[];" parent="BLg8-A7XgE2zRtbyasNK-9" vertex="1" connectable="0">
          <mxGeometry x="-0.1467" y="1" relative="1" as="geometry">
            <mxPoint x="11" y="-9" as="offset" />
          </mxGeometry>
        </mxCell>
        <mxCell id="BLg8-A7XgE2zRtbyasNK-11" value="display next to" style="html=1;verticalAlign=bottom;endArrow=open;dashed=1;endSize=8;curved=0;rounded=0;entryX=1.1;entryY=0.359;entryDx=0;entryDy=0;entryPerimeter=0;" parent="1" source="BLg8-A7XgE2zRtbyasNK-8" target="BLg8-A7XgE2zRtbyasNK-6" edge="1">
          <mxGeometry relative="1" as="geometry">
            <mxPoint x="420" y="190" as="sourcePoint" />
            <mxPoint x="320" y="190" as="targetPoint" />
          </mxGeometry>
        </mxCell>
        <mxCell id="BLg8-A7XgE2zRtbyasNK-12" value="display()" style="html=1;verticalAlign=bottom;endArrow=open;dashed=1;endSize=8;curved=0;rounded=0;exitX=-0.3;exitY=0.435;exitDx=0;exitDy=0;exitPerimeter=0;" parent="1" source="BLg8-A7XgE2zRtbyasNK-6" target="BLg8-A7XgE2zRtbyasNK-5" edge="1">
          <mxGeometry relative="1" as="geometry">
            <mxPoint x="321" y="199.99999999999997" as="sourcePoint" />
            <mxPoint x="150" y="199.99999999999997" as="targetPoint" />
          </mxGeometry>
        </mxCell>
        <mxCell id="BLg8-A7XgE2zRtbyasNK-13" value="alt" style="shape=umlFrame;whiteSpace=wrap;html=1;pointerEvents=0;" parent="1" vertex="1">
          <mxGeometry x="-80" y="310" width="810" height="150" as="geometry" />
        </mxCell>
        <mxCell id="BLg8-A7XgE2zRtbyasNK-14" value="[User wants to return]" style="text;html=1;align=center;verticalAlign=middle;resizable=0;points=[];autosize=1;strokeColor=none;fillColor=none;" parent="1" vertex="1">
          <mxGeometry x="-80" y="400" width="140" height="30" as="geometry" />
        </mxCell>
        <mxCell id="BLg8-A7XgE2zRtbyasNK-15" value="" style="html=1;points=[[0,0,0,0,5],[0,1,0,0,-5],[1,0,0,0,5],[1,1,0,0,-5]];perimeter=orthogonalPerimeter;outlineConnect=0;targetShapes=umlLifeline;portConstraint=eastwest;newEdgeStyle={&quot;curved&quot;:0,&quot;rounded&quot;:0};" parent="1" vertex="1">
          <mxGeometry x="575" y="420" width="10" height="30" as="geometry" />
        </mxCell>
        <mxCell id="BLg8-A7XgE2zRtbyasNK-16" value="click(X)" style="html=1;verticalAlign=bottom;endArrow=block;curved=0;rounded=0;" parent="1" target="BLg8-A7XgE2zRtbyasNK-33" edge="1">
          <mxGeometry width="80" relative="1" as="geometry">
            <mxPoint x="145" y="420" as="sourcePoint" />
            <mxPoint x="285" y="420" as="targetPoint" />
          </mxGeometry>
        </mxCell>
        <mxCell id="BLg8-A7XgE2zRtbyasNK-17" value="redirect()" style="html=1;verticalAlign=bottom;endArrow=block;curved=0;rounded=0;entryX=0;entryY=0;entryDx=0;entryDy=5;entryPerimeter=0;" parent="1" source="BLg8-A7XgE2zRtbyasNK-33" target="BLg8-A7XgE2zRtbyasNK-15" edge="1">
          <mxGeometry width="80" relative="1" as="geometry">
            <mxPoint x="295" y="425" as="sourcePoint" />
            <mxPoint x="350" y="750" as="targetPoint" />
          </mxGeometry>
        </mxCell>
        <mxCell id="BLg8-A7XgE2zRtbyasNK-18" value="display()" style="html=1;verticalAlign=bottom;endArrow=open;dashed=1;endSize=8;curved=0;rounded=0;exitX=0;exitY=1;exitDx=0;exitDy=-5;exitPerimeter=0;" parent="1" source="BLg8-A7XgE2zRtbyasNK-15" edge="1">
          <mxGeometry relative="1" as="geometry">
            <mxPoint x="360" y="450" as="sourcePoint" />
            <mxPoint x="145" y="445" as="targetPoint" />
          </mxGeometry>
        </mxCell>
        <mxCell id="BLg8-A7XgE2zRtbyasNK-20" value="[If subject is reviewed]" style="text;html=1;align=center;verticalAlign=middle;resizable=0;points=[];autosize=1;strokeColor=none;fillColor=none;" parent="1" vertex="1">
          <mxGeometry x="-20" y="260" width="140" height="30" as="geometry" />
        </mxCell>
        <mxCell id="BLg8-A7XgE2zRtbyasNK-21" value="[If subect not reviewed]" style="text;html=1;align=center;verticalAlign=middle;resizable=0;points=[];autosize=1;strokeColor=none;fillColor=none;" parent="1" vertex="1">
          <mxGeometry x="-20" y="220" width="150" height="30" as="geometry" />
        </mxCell>
        <mxCell id="BLg8-A7XgE2zRtbyasNK-23" value="alt" style="shape=umlFrame;whiteSpace=wrap;html=1;pointerEvents=0;" parent="1" vertex="1">
          <mxGeometry x="-80" y="220" width="800" height="70" as="geometry" />
        </mxCell>
        <mxCell id="BLg8-A7XgE2zRtbyasNK-24" value="[Passed subject]" style="text;html=1;align=center;verticalAlign=middle;resizable=0;points=[];autosize=1;strokeColor=none;fillColor=none;" parent="1" vertex="1">
          <mxGeometry x="-190" y="240" width="110" height="30" as="geometry" />
        </mxCell>
        <mxCell id="BLg8-A7XgE2zRtbyasNK-26" value="" style="endArrow=none;dashed=1;html=1;rounded=0;exitX=0;exitY=0.486;exitDx=0;exitDy=0;exitPerimeter=0;entryX=1.003;entryY=0.5;entryDx=0;entryDy=0;entryPerimeter=0;" parent="1" source="BLg8-A7XgE2zRtbyasNK-23" target="BLg8-A7XgE2zRtbyasNK-23" edge="1">
          <mxGeometry width="50" height="50" relative="1" as="geometry">
            <mxPoint x="20" y="300" as="sourcePoint" />
            <mxPoint x="620" y="254" as="targetPoint" />
          </mxGeometry>
        </mxCell>
        <mxCell id="BLg8-A7XgE2zRtbyasNK-27" value="display(&quot;Κάνε μια αξιολόγηση&quot;)" style="html=1;verticalAlign=bottom;endArrow=open;dashed=1;endSize=8;curved=0;rounded=0;entryX=1.1;entryY=0.465;entryDx=0;entryDy=0;entryPerimeter=0;" parent="1" source="BLg8-A7XgE2zRtbyasNK-6" target="BLg8-A7XgE2zRtbyasNK-5" edge="1">
          <mxGeometry x="0.0059" relative="1" as="geometry">
            <mxPoint x="280" y="240" as="sourcePoint" />
            <mxPoint x="190" y="234.5" as="targetPoint" />
            <mxPoint as="offset" />
          </mxGeometry>
        </mxCell>
        <mxCell id="BLg8-A7XgE2zRtbyasNK-31" value="loop" style="shape=umlFrame;whiteSpace=wrap;html=1;pointerEvents=0;" parent="1" vertex="1">
          <mxGeometry x="-190" y="210" width="920" height="90" as="geometry" />
        </mxCell>
        <mxCell id="BLg8-A7XgE2zRtbyasNK-32" value="display(&quot;Αξιολογημένο&quot;)" style="html=1;verticalAlign=bottom;endArrow=open;dashed=1;endSize=8;curved=0;rounded=0;entryX=0.8;entryY=0.353;entryDx=0;entryDy=0;entryPerimeter=0;" parent="1" source="BLg8-A7XgE2zRtbyasNK-6" target="BLg8-A7XgE2zRtbyasNK-5" edge="1">
          <mxGeometry x="0.0059" relative="1" as="geometry">
            <mxPoint x="304.5" y="274.5" as="sourcePoint" />
            <mxPoint x="150" y="240" as="targetPoint" />
            <mxPoint as="offset" />
          </mxGeometry>
        </mxCell>
        <mxCell id="BLg8-A7XgE2zRtbyasNK-33" value="" style="html=1;points=[[0,0,0,0,5],[0,1,0,0,-5],[1,0,0,0,5],[1,1,0,0,-5]];perimeter=orthogonalPerimeter;outlineConnect=0;targetShapes=umlLifeline;portConstraint=eastwest;newEdgeStyle={&quot;curved&quot;:0,&quot;rounded&quot;:0};" parent="1" vertex="1">
          <mxGeometry x="315" y="400" width="10" height="40" as="geometry" />
        </mxCell>
        <mxCell id="BLg8-A7XgE2zRtbyasNK-34" value="" style="endArrow=none;dashed=1;html=1;rounded=0;entryX=0.997;entryY=0.56;entryDx=0;entryDy=0;entryPerimeter=0;exitX=0.006;exitY=0.56;exitDx=0;exitDy=0;exitPerimeter=0;" parent="1" source="BLg8-A7XgE2zRtbyasNK-13" target="BLg8-A7XgE2zRtbyasNK-13" edge="1">
          <mxGeometry width="50" height="50" relative="1" as="geometry">
            <mxPoint x="250" y="430" as="sourcePoint" />
            <mxPoint x="300" y="380" as="targetPoint" />
          </mxGeometry>
        </mxCell>
        <mxCell id="BLg8-A7XgE2zRtbyasNK-35" value="[User choose subject}" style="text;html=1;align=center;verticalAlign=middle;resizable=0;points=[];autosize=1;strokeColor=none;fillColor=none;" parent="1" vertex="1">
          <mxGeometry x="-80" y="340" width="140" height="30" as="geometry" />
        </mxCell>
        <mxCell id="BLg8-A7XgE2zRtbyasNK-36" value=":ViewSubject" style="shape=umlLifeline;perimeter=lifelinePerimeter;whiteSpace=wrap;html=1;container=1;dropTarget=0;collapsible=0;recursiveResize=0;outlineConnect=0;portConstraint=eastwest;newEdgeStyle={&quot;curved&quot;:0,&quot;rounded&quot;:0};" parent="1" vertex="1">
          <mxGeometry x="650" y="80" width="100" height="440" as="geometry" />
        </mxCell>
        <mxCell id="BLg8-A7XgE2zRtbyasNK-40" value="" style="html=1;points=[[0,0,0,0,5],[0,1,0,0,-5],[1,0,0,0,5],[1,1,0,0,-5]];perimeter=orthogonalPerimeter;outlineConnect=0;targetShapes=umlLifeline;portConstraint=eastwest;newEdgeStyle={&quot;curved&quot;:0,&quot;rounded&quot;:0};" parent="BLg8-A7XgE2zRtbyasNK-36" vertex="1">
          <mxGeometry x="45" y="270" width="10" height="30" as="geometry" />
        </mxCell>
        <mxCell id="BLg8-A7XgE2zRtbyasNK-37" value="" style="html=1;points=[[0,0,0,0,5],[0,1,0,0,-5],[1,0,0,0,5],[1,1,0,0,-5]];perimeter=orthogonalPerimeter;outlineConnect=0;targetShapes=umlLifeline;portConstraint=eastwest;newEdgeStyle={&quot;curved&quot;:0,&quot;rounded&quot;:0};" parent="1" vertex="1">
          <mxGeometry x="315" y="320" width="10" height="40" as="geometry" />
        </mxCell>
        <mxCell id="BLg8-A7XgE2zRtbyasNK-38" value="click on subject" style="html=1;verticalAlign=bottom;endArrow=block;curved=0;rounded=0;exitX=1.1;exitY=0.609;exitDx=0;exitDy=0;exitPerimeter=0;" parent="1" source="BLg8-A7XgE2zRtbyasNK-5" target="BLg8-A7XgE2zRtbyasNK-37" edge="1">
          <mxGeometry width="80" relative="1" as="geometry">
            <mxPoint x="200" y="330" as="sourcePoint" />
            <mxPoint x="280" y="330" as="targetPoint" />
          </mxGeometry>
        </mxCell>
        <mxCell id="BLg8-A7XgE2zRtbyasNK-39" value="redirect()" style="html=1;verticalAlign=bottom;endArrow=block;curved=0;rounded=0;" parent="1" source="BLg8-A7XgE2zRtbyasNK-37" target="BLg8-A7XgE2zRtbyasNK-40" edge="1">
          <mxGeometry width="80" relative="1" as="geometry">
            <mxPoint x="334" y="340" as="sourcePoint" />
            <mxPoint x="414" y="340" as="targetPoint" />
          </mxGeometry>
        </mxCell>
        <mxCell id="BLg8-A7XgE2zRtbyasNK-41" value="display()" style="html=1;verticalAlign=bottom;endArrow=open;dashed=1;endSize=8;curved=0;rounded=0;exitX=0;exitY=1;exitDx=0;exitDy=-5;exitPerimeter=0;" parent="1" source="BLg8-A7XgE2zRtbyasNK-40" target="BLg8-A7XgE2zRtbyasNK-5" edge="1">
          <mxGeometry relative="1" as="geometry">
            <mxPoint x="414" y="380" as="sourcePoint" />
            <mxPoint x="334" y="380" as="targetPoint" />
          </mxGeometry>
        </mxCell>
      </root>
    </mxGraphModel>
  </diagram>
</mxfile>
